<?xml version="1.0" encoding="utf-8"?>
<!-- Generator: Adobe Illustrator 27.5.0, SVG Export Plug-In . SVG Version: 6.00 Build 0)  -->
<svg version="1.1" id="BASE" xmlns="http://www.w3.org/2000/svg" xmlns:xlink="http://www.w3.org/1999/xlink" x="0px" y="0px"
	 viewBox="0 0 2279 1975" style="enable-background:new 0 0 2279 1975;" xml:space="preserve">
<g>
	<path style="fill:#D41F25;" d="M2030.339,1092.768c-0.006-0.046-0.013-0.092-0.019-0.137c-0.096-0.681-0.195-1.36-0.3-2.037
		l-0.032-0.203c-0.101-0.647-0.205-1.293-0.314-1.937c-0.016-0.093-0.032-0.185-0.047-0.278c-0.108-0.643-0.222-1.284-0.34-1.924
		c-0.013-0.073-0.026-0.147-0.04-0.22c-0.129-0.692-0.26-1.382-0.398-2.07c-0.003-0.016-0.007-0.032-0.01-0.048
		c-0.434-2.17-0.916-4.322-1.444-6.457c-0.003-0.011-0.005-0.021-0.008-0.031c-0.163-0.661-0.333-1.321-0.506-1.978
		c-0.04-0.155-0.083-0.309-0.123-0.464c-0.14-0.526-0.282-1.051-0.429-1.575c-0.051-0.181-0.102-0.362-0.153-0.543
		c-0.14-0.495-0.283-0.988-0.428-1.481c-0.06-0.204-0.12-0.408-0.182-0.612c-0.141-0.472-0.287-0.942-0.432-1.412
		c-0.065-0.211-0.131-0.421-0.197-0.631c-0.149-0.472-0.302-0.943-0.457-1.413c-0.064-0.194-0.127-0.39-0.191-0.583
		c-0.17-0.51-0.344-1.017-0.519-1.525c-0.055-0.158-0.107-0.316-0.162-0.473c-0.216-0.617-0.437-1.233-0.661-1.846
		c-0.016-0.043-0.031-0.087-0.047-0.13c-0.244-0.666-0.493-1.329-0.747-1.99c-0.049-0.129-0.102-0.256-0.152-0.385
		c-0.2-0.518-0.404-1.035-0.611-1.551c-0.089-0.22-0.179-0.44-0.27-0.66c-0.172-0.419-0.343-0.838-0.518-1.255
		c-0.108-0.257-0.218-0.514-0.328-0.771c-0.164-0.383-0.328-0.766-0.496-1.149c-0.112-0.258-0.228-0.516-0.342-0.774
		c-0.17-0.383-0.342-0.765-0.517-1.146c-0.119-0.263-0.241-0.526-0.361-0.788c-0.172-0.37-0.347-0.739-0.52-1.108
		c-0.123-0.258-0.245-0.515-0.369-0.772c-0.191-0.394-0.385-0.786-0.578-1.178c-0.115-0.233-0.229-0.467-0.345-0.699
		c-0.206-0.409-0.415-0.816-0.624-1.222c-0.113-0.219-0.223-0.438-0.338-0.656c-0.319-0.613-0.644-1.225-0.973-1.835l-33.696-80.931
		c-0.002,0.006-0.004,0.013-0.005,0.019l-110.92-266.311l256.566-458.153l-15.402-65.604L743.109,442.219L542.291,750.313
		c-8.602-39.865,5.027-69.639,5.027-69.639l-41.162,14.201c-23.117,47.977-1.685,95.135-1.685,95.135
		c-45.603-49.973-21.699-156.068-21.699-156.068l-95.742,40.894c1.654,82.769,47.116,157.531,47.116,157.531
		c-56.388-12.089-94.917-108.041-94.917-108.041c-18.328,28.594-36.643,57.218-54.972,85.812
		c10.501,28.867,41.457,103.053,115.453,158.924l-247.79,380.159l18.65,53.2l460.286-84.889l120.248,288.738l31.191,74.908
		c2.623,8.707,6.084,17.058,10.377,25.049c34.532,63.755,117.132,94.769,226.991,94.769c0.957,0,1.915-0.004,2.876-0.009
		c5.204-0.025,10.467-0.121,15.788-0.284c0.258-0.003,0.517-0.006,0.777-0.006c0.417-0.016,0.841-0.032,1.266-0.048
		c1.154-0.044,2.33-0.087,3.505-0.131c1.128-0.048,2.257-0.098,3.389-0.15l0.305-0.013c0.265-0.012,0.531-0.025,0.797-0.038
		c140.469-6.483,319.354-59.528,498.137-155.904c0.721-0.384,1.443-0.771,2.164-1.167
		c147.923-80.023,271.094-176.471,356.074-272.009c0.004-0.005,0.009-0.01,0.013-0.014c0.705-0.793,1.409-1.586,2.109-2.379
		l-0.003-0.007C1994.908,1269.113,2041.182,1170.532,2030.339,1092.768z"/>
	<path style="fill:#19283E;" d="M2126.754,239.444l-15.402-65.604L743.109,442.219L542.291,750.313
		c7.984,36.999,35.12,82.691,110.078,121.339c0,0,40.269,11.983,69.483,40.215c1.728,1.67,3.416,3.399,5.054,5.184
		c2.219-1.534,4.566-2.936,7.044-4.183c9.627-4.844,19.957-6.771,29.987-6.122c0.009,0,0.017,0.001,0.026,0.002
		c20.001,1.303,38.807,12.866,48.467,32.067c1.459,2.901,2.649,5.867,3.59,8.869c93.895-0.144,185.31-15.031,269.681-56.989
		c1.82-0.905,3.638-1.818,5.451-2.749c37.325-19.15,75.488-42.825,104.112-74.492c2.296-2.541,4.532-5.133,6.702-7.779
		c4.88-5.954,9.426-12.177,13.568-18.692c1.177-1.851,2.427-3.878,3.707-6.047c23.126-22.44,30.954-53.208,17.006-74.71
		c-5.083-7.835-12.472-13.527-21.253-17.024c-0.092-0.036-0.182-0.073-0.272-0.109c0.134,0.033,0.268,0.067,0.404,0.101
		c11.708,2.927,21.927,9.711,28.812,21.648c15.384,26.675-1.509,62.487-20.602,89.271c-5.256,7.371-10.676,14.06-15.638,19.685
		c-0.923,1.047-1.832,2.057-2.719,3.028c-30.047,32.87-68.453,57.644-108.098,77.838c-5.26,2.68-10.543,5.279-15.83,7.806
		c-82.809,39.566-170.071,61.547-262.375,56.609c-0.015,21.374-11.795,41.956-32.192,52.216
		c-26.366,13.264-57.996,4.685-74.311-18.925c-11.334,8.588-24.586,16.812-39.904,23.604c-2.802,1.242-5.606,2.404-8.413,3.494
		c-17.847,6.936-35.735,10.866-53.25,12.515c-85.412,8.108-161.964-37.564-182.149-49.582
		c-10.238-6.104-19.806-12.588-28.748-19.339l-247.79,380.159l18.65,53.2l460.286-84.889l120.248,288.738l8.409,20.159
		c38.229,12.464,83.734,18.607,134.547,18.607c4.962,0,9.976-0.061,15.039-0.177c1.974-0.045,3.991-0.138,5.982-0.203
		c3.107-0.099,6.2-0.182,9.343-0.323c2.466-0.112,4.975-0.275,7.465-0.413c2.705-0.15,5.392-0.28,8.123-0.46
		c2.776-0.183,5.593-0.422,8.398-0.638c2.483-0.192,4.95-0.364,7.455-0.581c3.004-0.261,6.046-0.575,9.078-0.872
		c2.342-0.23,4.668-0.44,7.026-0.69c3.147-0.337,6.331-0.722,9.505-1.097c2.297-0.271,4.583-0.525,6.896-0.816
		c3.21-0.403,6.454-0.856,9.691-1.3c2.322-0.318,4.633-0.621,6.968-0.958c3.232-0.467,6.495-0.98,9.751-1.485
		c2.393-0.371,4.776-0.729,7.183-1.122c3.205-0.523,6.44-1.087,9.672-1.646c2.508-0.435,5.011-0.857,7.535-1.315
		c3.125-0.565,6.275-1.168,9.423-1.767c2.69-0.512,5.375-1.018,8.081-1.555c2.973-0.589,5.966-1.213,8.959-1.833
		c2.948-0.61,5.893-1.219,8.857-1.857c2.749-0.593,5.513-1.215,8.278-1.833c3.276-0.733,6.552-1.466,9.847-2.234
		c2.463-0.573,4.936-1.169,7.408-1.762c3.677-0.882,7.357-1.771,11.055-2.695c2.101-0.524,4.21-1.066,6.318-1.604
		c4.15-1.062,8.308-2.136,12.485-3.251c1.659-0.441,3.324-0.894,4.988-1.345c4.712-1.279,9.436-2.579,14.182-3.926
		c1.138-0.322,2.28-0.649,3.418-0.975c5.386-1.543,10.789-3.12,16.213-4.75c0.226-0.068,0.451-0.137,0.677-0.204
		c95.201-28.605,196.224-70.433,297.183-125.058c1.862-1.009,3.703-2.03,5.542-3.053c1.316-0.732,2.632-1.465,3.955-2.192
		c4.786-2.628,9.518-5.29,14.253-7.948c6.807-3.822,13.555-7.678,20.261-11.559c1.049-0.606,2.089-1.216,3.135-1.824
		c6.494-3.775,12.949-7.571,19.339-11.404c5.141-3.083,10.257-6.181,15.332-9.298c6.243-3.836,12.406-7.71,18.547-11.594
		c1.714-1.085,3.44-2.164,5.146-3.252c5.741-3.661,11.426-7.346,17.075-11.047c1.944-1.278,3.892-2.554,5.827-3.836
		c5.598-3.703,11.161-7.418,16.666-11.158c1.68-1.145,3.351-2.292,5.02-3.44c5.815-3.984,11.608-7.975,17.315-11.996
		c3.506-2.471,6.966-4.957,10.429-7.442c4.102-2.941,8.211-5.88,12.254-8.84c3.599-2.635,7.133-5.288,10.685-7.936
		c5.773-4.306,11.481-8.629,17.133-12.966c1.006-0.78,2.023-1.56,3.028-2.34c5.258-4.057,10.482-8.121,15.622-12.207
		c5.807-4.616,11.578-9.24,17.236-13.886c2.679-2.2,5.274-4.415,7.921-6.622c4.232-3.53,8.479-7.056,12.624-10.6
		c2.737-2.34,5.396-4.69,8.095-7.035c3.017-2.623,6.025-5.248,8.996-7.878c3.518-3.117,6.996-6.239,10.447-9.364
		c3.897-3.529,7.783-7.058,11.589-10.595c4.665-4.333,9.208-8.676,13.737-13.02c1.608-1.543,3.251-3.082,4.841-4.626
		c2.237-2.171,4.442-4.344,6.644-6.517c1.353-1.334,2.667-2.671,4.006-4.005c4.482-4.468,8.932-8.936,13.267-13.409l0.26-0.272
		c3.73-3.853,7.408-7.707,11.027-11.561c1.015-1.08,2.025-2.161,3.032-3.242c74.863-80.394,125.295-160.788,144.281-232.411
		l-110.92-266.311L2126.754,239.444z"/>
	<path style="fill:#142134;" d="M743.109,442.219L542.291,750.313c7.984,36.999,35.12,82.691,110.078,121.339
		c0,0,40.269,11.983,69.483,40.215c1.728,1.67,3.416,3.399,5.054,5.184c2.219-1.534,4.566-2.936,7.044-4.183
		c9.627-4.844,19.957-6.771,29.987-6.122c0.009,0,0.017,0.001,0.026,0.002c20.001,1.303,38.807,12.866,48.467,32.067
		c1.459,2.901,2.649,5.867,3.59,8.869c93.895-0.144,185.31-15.031,269.681-56.989c1.82-0.905,3.638-1.818,5.451-2.749
		c37.325-19.15,75.488-42.825,104.112-74.492c2.296-2.541,4.532-5.133,6.702-7.779c4.88-5.954,9.426-12.177,13.568-18.692
		c1.177-1.851,2.427-3.878,3.707-6.047c23.126-22.44,30.954-53.208,17.006-74.71c-5.083-7.835-12.472-13.527-21.253-17.024
		c-0.092-0.036-0.182-0.073-0.272-0.109c0.134,0.033,0.268,0.067,0.404,0.101c11.708,2.927,21.927,9.711,28.812,21.648
		c15.384,26.675-1.509,62.487-20.602,89.271c-5.256,7.371-10.676,14.06-15.638,19.685c-0.923,1.047-1.832,2.057-2.719,3.028
		c-30.047,32.87-68.453,57.644-108.098,77.838c-5.26,2.68-10.543,5.279-15.83,7.806c-82.809,39.566-170.071,61.547-262.375,56.609
		c-0.015,21.374-11.795,41.956-32.192,52.216c-26.366,13.264-57.996,4.685-74.311-18.925c-11.334,8.588-24.586,16.812-39.904,23.604
		c-2.802,1.242-5.606,2.404-8.413,3.494c-17.847,6.936-35.735,10.866-53.25,12.515c-85.412,8.108-161.964-37.564-182.149-49.582
		c-10.238-6.104-19.806-12.588-28.748-19.339l-247.79,380.159l455.623-85.844l607.222-114.406l117.54-22.146l271.195-51.095
		l107.168-190.318l136.663-242.696l264.023-468.874L743.109,442.219z"/>
	<path style="fill:#0E1728;" d="M1236.246,706.225c-5.083-7.835-12.472-13.527-21.253-17.024c-0.092-0.036-0.182-0.073-0.272-0.109
		c-16.552-6.483-37.999-5.2-58.345,4.251c-4.093,1.901-8.142,4.129-12.096,6.694c-34.186,22.177-48.439,60.906-31.835,86.501
		c3.208,4.946,7.339,9.037,12.154,12.263c12.694,19.115,41.101,24.069,70.665,14.652c2.296-2.541,4.532-5.133,6.702-7.779
		c4.88-5.954,9.426-12.177,13.568-18.692c1.177-1.851,2.427-3.878,3.707-6.047C1242.367,758.495,1250.195,727.727,1236.246,706.225z
		"/>
	<polygon points="1710.667,885.411 1603.499,1075.729 1625.779,1134.041 1733.5,941.682 1870.188,697.597 2126.754,239.444 
		2111.352,173.84 1847.329,642.715 	"/>
	<path style="fill:#142134;" d="M1355.465,1183.894l-132.564,24.448l-592.047,109.189l120.248,288.738l8.409,20.159
		c38.229,12.464,83.734,18.607,134.547,18.607c4.962,0,9.976-0.061,15.039-0.177c1.974-0.045,3.991-0.138,5.982-0.203
		c3.107-0.099,6.2-0.182,9.343-0.323c2.466-0.112,4.975-0.275,7.465-0.413c2.705-0.15,5.392-0.28,8.123-0.46
		c2.776-0.183,5.593-0.422,8.398-0.638c2.483-0.192,4.95-0.364,7.455-0.581c3.004-0.261,6.046-0.575,9.078-0.872
		c2.342-0.23,4.668-0.44,7.026-0.69c3.147-0.337,6.331-0.722,9.505-1.097c2.297-0.271,4.583-0.525,6.896-0.816
		c3.21-0.403,6.454-0.856,9.691-1.3c2.322-0.318,4.633-0.621,6.968-0.958c3.232-0.467,6.495-0.98,9.751-1.485
		c2.393-0.371,4.776-0.729,7.183-1.122c3.205-0.523,6.44-1.087,9.672-1.646c2.508-0.435,5.011-0.857,7.535-1.315
		c3.125-0.565,6.275-1.168,9.423-1.767c2.69-0.512,5.375-1.018,8.081-1.555c2.973-0.589,5.966-1.213,8.959-1.833
		c2.948-0.61,5.893-1.219,8.857-1.857c2.749-0.593,5.513-1.215,8.278-1.833c3.276-0.733,6.552-1.466,9.847-2.234
		c2.463-0.573,4.936-1.169,7.408-1.762c3.677-0.882,7.357-1.771,11.055-2.695c2.101-0.524,4.21-1.066,6.318-1.604
		c4.15-1.062,8.308-2.136,12.485-3.251c1.659-0.441,3.324-0.894,4.988-1.345c4.712-1.279,9.436-2.579,14.182-3.926
		c1.138-0.322,2.28-0.649,3.418-0.975c5.386-1.543,10.789-3.12,16.213-4.75c0.226-0.068,0.451-0.137,0.677-0.204
		c95.201-28.605,196.224-70.433,297.183-125.058c1.862-1.009,3.703-2.03,5.542-3.053L1355.465,1183.894z"/>
	<path style="fill:#080E1A;" d="M894.058,1645.035c4.962,0,9.976-0.061,15.039-0.177c1.974-0.045,3.991-0.138,5.982-0.203
		c3.107-0.099,6.2-0.182,9.343-0.323c2.466-0.112,4.975-0.275,7.465-0.413c2.705-0.15,5.392-0.28,8.123-0.46
		c2.776-0.183,5.593-0.422,8.398-0.638c2.483-0.192,4.95-0.364,7.455-0.581c3.004-0.261,6.046-0.575,9.078-0.872
		c2.342-0.23,4.668-0.44,7.026-0.69c3.147-0.337,6.331-0.722,9.505-1.097c2.297-0.271,4.583-0.525,6.896-0.816
		c3.21-0.403,6.454-0.856,9.691-1.3c2.322-0.318,4.633-0.621,6.968-0.958c3.232-0.467,6.495-0.98,9.751-1.485
		c2.393-0.371,4.776-0.729,7.183-1.122c3.205-0.523,6.44-1.087,9.672-1.646c2.508-0.435,5.011-0.857,7.535-1.315
		c3.125-0.565,6.275-1.168,9.423-1.767c2.69-0.512,5.375-1.018,8.081-1.555c2.973-0.589,5.966-1.213,8.959-1.833
		c2.948-0.61,5.893-1.219,8.857-1.857c2.749-0.593,5.513-1.215,8.278-1.833c3.276-0.733,6.552-1.466,9.847-2.234
		c2.463-0.573,4.936-1.169,7.408-1.762c3.677-0.882,7.357-1.771,11.055-2.695c2.101-0.524,4.21-1.066,6.318-1.604
		c4.15-1.062,8.308-2.136,12.485-3.251c1.659-0.441,3.324-0.894,4.988-1.345c4.712-1.279,9.436-2.579,14.182-3.926
		c1.138-0.322,2.28-0.649,3.418-0.975c5.386-1.543,10.789-3.12,16.213-4.75c0.226-0.068,0.451-0.137,0.677-0.204
		c35.903-86.834,55.761-180.108,57.968-268.731c0.97-38.284-0.15-79.928-4.424-122.271l-592.047,109.189l120.248,288.738
		l8.409,20.159C797.74,1638.891,843.245,1645.035,894.058,1645.035z"/>
	<path style="fill:#142134;" d="M1836.827,1196.318c74.863-80.394,125.295-160.788,144.281-232.411l-110.92-266.311L1733.5,941.682
		L1836.827,1196.318z"/>
	<path style="fill:#0E1728;" d="M1243.937,710.842c15.384,26.675-1.509,62.487-20.602,89.271c0.107-0.069,0.216-0.137,0.323-0.206
		c38.228-24.8,55.757-65.654,39.153-91.25c-9.234-14.236-27.086-20.749-47.686-19.464
		C1226.833,692.12,1237.052,698.904,1243.937,710.842z"/>
	<path style="fill:#A91C1B;" d="M713.717,922.574c-16.296,5.253-50.849-15.675-64.765-22.96
		c-21.243-11.086-41.662-23.858-63.787-33.229c26.581,20.687,61.876,30.01,86.042,54.202c6.492,6.475,22.18,19.666,16.673,30.397
		c-3.468,6.761-18.434,9.528-25.159,9.021c-22.89-1.716-45.718-7.861-68.296-12.424c18.619,12.661,64.038,4.97,76.427,29.234
		c9.382,18.362-42.149,27.201-53.936,28.914c14.177,1.882,29.994-3.239,44.486-3.841c8.401-0.355,14.315,1.51,15.746,4.722
		c1.248,2.8-0.91,6.622-7.801,10.893c-0.276,0.171-0.557,0.343-0.849,0.516c-15.544,9.201-34.357,12.049-51.29,17.769
		c-2.206,0.746-4.411,1.492-6.602,2.195c17.515-1.649,35.403-5.579,53.25-12.515c2.807-1.09,5.61-2.252,8.413-3.494
		c15.318-6.792,28.57-15.016,39.904-23.604c-1.528-2.212-2.925-4.552-4.169-7.022c-2.816-5.595-4.642-11.429-5.555-17.302
		c0-0.003,0-0.006-0.001-0.009c-3.382-21.79,5.878-44.133,24.46-56.986c-1.638-1.786-3.326-3.514-5.054-5.184
		C722.458,916.614,720.217,920.467,713.717,922.574z"/>
	<path style="fill:#E73443;" d="M708.609,966.629c0,0.004,0.001,0.007,0.001,0.011c0.604,3.947,1.826,7.868,3.717,11.628
		c2.432,4.833,5.733,8.94,9.618,12.228c11.569,9.788,28.311,12.309,42.702,5.07c19.226-9.671,26.97-33.095,17.298-52.32
		c-6.526-12.974-19.315-20.718-32.852-21.411c-0.009-0.001-0.018-0.001-0.027-0.001c-5.319-0.269-10.752,0.552-15.966,2.572
		c-1.171,0.454-2.33,0.966-3.475,1.541C714.165,933.726,706.132,950.399,708.609,966.629z"/>
	<path style="fill:#E73443;" d="M764.151,1016.57c3.568,5.059,15.712,2.637,27.124-5.412c11.413-8.048,17.772-18.674,14.202-23.734
		c-3.568-5.059-15.711-2.637-27.123,5.412C766.943,1000.885,760.583,1011.511,764.151,1016.57z"/>
	<path style="fill:#E73443;" d="M479.576,811.839c4.964,4.273,9.956,8.188,14.933,11.783c32.417,23.419,64.137,33.098,82.482,37.353
		c-31.331-16.208-54.243-35.245-70.925-55.083c-59.186-70.384-39.942-150.853-39.942-150.853l-60.916,30.644
		C409.73,706.484,425.375,765.18,479.576,811.839z"/>
	<path style="fill:#E73443;" d="M455.235,883.873C377.359,825.761,337.12,752.648,337.12,752.648l-26.036,42.176
		c33.829,53.038,83.115,87.614,130.465,110.047c73.032,34.601,141.456,40.314,141.456,40.314
		C532.949,933.139,490.282,910.025,455.235,883.873z"/>
	<path d="M1198.214,796.433c2.086-1.147,4.154-2.381,6.197-3.706c5.467-3.548,10.425-7.519,14.829-11.792
		c23.126-22.44,30.954-53.208,17.006-74.71c-5.083-7.835-12.472-13.527-21.253-17.024c-0.092-0.036-0.182-0.073-0.272-0.109
		c-16.552-6.483-37.999-5.2-58.345,4.251c-4.093,1.901-8.142,4.129-12.096,6.694c-34.186,22.177-48.439,60.906-31.835,86.501
		c3.208,4.946,7.339,9.037,12.154,12.263C1143.218,811.273,1172.137,810.779,1198.214,796.433z"/>
	<path style="fill:#A91C1B;" d="M1046.77,1800.373c-0.946,0.034-1.892,0.064-2.838,0.084
		c52.721-57.731,94.887-127.093,125.422-201.105c-100.671,30.297-194.723,45.683-275.297,45.683
		c-50.813,0-96.318-6.143-134.547-18.607l22.782,54.749c2.623,8.707,6.084,17.058,10.377,25.049
		c34.532,63.755,117.132,94.769,226.991,94.769c0.957,0,1.915-0.004,2.876-0.009c3.892-0.02,7.824-0.086,11.795-0.23
		c1.349,0,2.658-0.04,3.994-0.054c0.258-0.003,0.517-0.006,0.777-0.006c0.417-0.016,0.841-0.032,1.266-0.048
		c1.154-0.044,2.33-0.087,3.505-0.131c1.128-0.048,2.257-0.098,3.389-0.15l0.305-0.013c0.265-0.012,0.531-0.025,0.797-0.038
		c0.53-0.025,1.061-0.052,1.593-0.08C1048.895,1800.291,1047.832,1800.335,1046.77,1800.373z"/>
	<path style="fill:#E73443;" d="M1836.846,1196.365c-90.057,96.736-215.599,193.472-364.759,274.881l71.009,174.924l0.024,0.059
		c1.127-0.619,2.255-1.214,3.382-1.816c0.721-0.384,1.443-0.771,2.164-1.167c147.923-80.023,271.094-176.471,356.074-272.009
		c0.004-0.005,0.009-0.01,0.013-0.014c0.705-0.793,1.409-1.586,2.109-2.379l-0.003-0.007l-0.009-0.022L1836.846,1196.365z"/>
</g>
</svg>
