<?xml version="1.0" encoding="iso-8859-1"?>
<!-- Uploaded to: SVG Repo, www.svgrepo.com, Generator: SVG Repo Mixer Tools -->
<svg version="1.1" id="Layer_1" xmlns="http://www.w3.org/2000/svg" xmlns:xlink="http://www.w3.org/1999/xlink" 
	 viewBox="0 0 512 512" xml:space="preserve">
<polygon style="fill:#363640;" points="254.687,266.593 201.814,301.847 222.707,512 289.293,512 310.186,301.847 "/>
<polygon style="fill:#464754;" points="310.186,301.847 320.276,200.354 191.724,200.354 201.814,301.847 "/>
<circle style="fill:#D7565A;" cx="255.995" cy="419.505" r="15.874"/>
<polygon style="opacity:0.1;enable-background:new    ;" points="235.159,200.354 191.724,200.354 201.814,301.847 222.707,512 
	266.142,512 245.249,301.847 "/>
<path style="fill:#464754;" d="M153.219,134.431c-2.416-8.905-3.705-18.274-3.705-27.945C149.514,47.675,197.189,0,256,0
	s106.486,47.675,106.486,106.486c0,9.67-1.289,19.039-3.704,27.944L153.219,134.431z"/>
<g>
	<path style="fill:#363640;" d="M356.344,103.218c1.59,1.59,3.675,2.386,5.758,2.386c0.124,0,0.248-0.012,0.371-0.017
		c-0.103-12.475-2.347-24.439-6.389-35.54c-1.196,0.383-2.323,1.042-3.272,1.991l-2.307,2.307l-12.109-12.109l9.525-9.525
		c-2.786-4.753-5.93-9.271-9.395-13.516c-0.298,0.225-0.587,0.465-0.859,0.735L326.88,50.719L314.772,38.61l11.264-11.264
		c0.191-0.191,0.369-0.39,0.536-0.594c-4.09-3.622-8.457-6.94-13.072-9.906l-10.247,10.247l-12.109-12.111l3.908-3.909
		c0.856-0.856,1.474-1.857,1.869-2.922c-5.335-2.222-10.887-4.025-16.618-5.363l-0.676,0.676l-1.061-1.062
		c-6.991-1.508-14.236-2.33-21.664-2.392c-0.101,2.206,0.683,4.447,2.368,6.131l8.84,8.84L256,27.09l-12.11-12.109l8.84-8.84
		c1.685-1.685,2.468-3.924,2.368-6.131c-7.427,0.062-14.672,0.884-21.664,2.392l-1.061,1.062l-0.676-0.676
		c-5.731,1.338-11.284,3.141-16.618,5.363c0.395,1.065,1.013,2.066,1.869,2.922l3.908,3.909l-12.109,12.109L198.5,16.844
		c-4.615,2.967-8.981,6.284-13.072,9.906c0.168,0.204,0.346,0.403,0.536,0.594l11.264,11.264L185.12,50.717l-10.788-10.788
		c-0.271-0.271-0.561-0.51-0.859-0.735c-3.466,4.245-6.609,8.763-9.395,13.516l9.525,9.525l-12.109,12.109l-2.307-2.307
		c-0.949-0.949-2.076-1.608-3.272-1.991c-4.043,11.101-6.286,23.065-6.389,35.54c0.124,0.005,0.248,0.017,0.371,0.017
		c2.084,0,4.169-0.795,5.758-2.386l5.839-5.839l12.11,12.109l-19.182,19.182c-0.88,0.88-1.507,1.913-1.9,3.011
		c0.224,0.92,0.451,1.838,0.697,2.748h18.477l13.425-13.425l13.425,13.425h20.405l13.425-13.424l13.424,13.424h20.406l13.424-13.424
		l13.424,13.424h20.406l13.424-13.424l13.424,13.424h18.478c0.246-0.91,0.473-1.829,0.697-2.747c-0.393-1.099-1.021-2.132-1.9-3.011
		l-19.182-19.182l12.11-12.109L356.344,103.218z M315.363,62.236l-12.11,12.109l-12.109-12.109l12.109-12.11L315.363,62.236z
		 M279.626,26.501l12.11,12.109l-12.11,12.109l-12.11-12.109L279.626,26.501z M268.109,62.236L256,74.344l-12.109-12.109L256,50.126
		L268.109,62.236z M232.374,26.501l12.11,12.109l-12.11,12.109l-12.11-12.109L232.374,26.501z M208.747,50.126l12.109,12.11
		l-12.109,12.109l-12.11-12.109L208.747,50.126z M173.011,85.862l12.11-12.109l12.109,12.109l-12.109,12.109L173.011,85.862z
		 M208.747,121.598l-12.109-12.11l12.109-12.109l12.109,12.11L208.747,121.598z M220.264,85.862l12.11-12.109l12.11,12.109
		l-12.11,12.109L220.264,85.862z M256,121.598l-12.11-12.109L256,97.38l12.11,12.11L256,121.598z M267.518,85.862l12.11-12.109
		l12.11,12.109l-12.11,12.109L267.518,85.862z M303.253,121.598l-12.109-12.11l12.109-12.11l12.109,12.109L303.253,121.598z
		 M326.879,97.971l-12.109-12.109l12.109-12.109l12.11,12.109L326.879,97.971z"/>
	<path style="fill:#363640;" d="M153.219,134.431v18.737c0,39.962,32.396,72.357,72.357,72.357h60.848
		c39.962,0,72.357-32.396,72.357-72.357v-18.737H153.219z"/>
</g>
<path style="opacity:0.1;enable-background:new    ;" d="M196.654,153.167v-18.736h-43.435v18.737
	c0,39.962,32.396,72.357,72.357,72.357h43.435C229.049,225.525,196.654,193.129,196.654,153.167z"/>
<path style="opacity:0.1;enable-background:new    ;" d="M192.949,106.486c0-51.368,36.374-94.237,84.769-104.267
	C270.706,0.767,263.443,0,256,0c-58.811,0-106.486,47.675-106.486,106.485c0,9.67,1.289,19.04,3.705,27.945h43.435
	C194.238,125.525,192.949,116.156,192.949,106.486z"/>
<rect x="135.843" y="117.459" style="fill:#A9ACCC;" width="240.315" height="33.923"/>
<rect x="135.843" y="117.47" style="opacity:0.1;enable-background:new    ;" width="43.435" height="33.923"/>
</svg>