<?xml version="1.0" encoding="iso-8859-1"?>
<!-- Uploaded to: SVG Repo, www.svgrepo.com, Generator: SVG Repo Mixer Tools -->
<svg version="1.1" id="Layer_1" xmlns="http://www.w3.org/2000/svg" xmlns:xlink="http://www.w3.org/1999/xlink" 
	 viewBox="0 0 347.053 347.053" xml:space="preserve">
<g>
	<g>
		<circle style="fill:#7D868C;" cx="266.311" cy="80.743" r="80.743"/>
		<path style="fill:#D1D3D3;" d="M196.295,104.182c-2.008-2.008-5.234-2.032-7.287-0.098c0.92,3.055,2.039,6.061,3.329,9.012
			c1.424,0.071,2.871-0.42,3.958-1.508C198.341,109.541,198.341,106.228,196.295,104.182z M272.157,28.321
			c-2.045-2.045-5.361-2.047-7.405-0.002c-2.045,2.044-2.045,5.361,0,7.407c2.045,2.045,5.36,2.045,7.405,0
			C274.202,33.68,274.201,30.366,272.157,28.321z M221.294,79.184c-2.045-2.044-5.36-2.046-7.405-0.001
			c-2.045,2.046-2.044,5.361,0,7.407c2.045,2.044,5.361,2.044,7.405,0C223.339,84.545,223.339,81.228,221.294,79.184z M289.653,3.44
			c-1.936,2.052-1.911,5.279,0.097,7.287c2.045,2.044,5.361,2.044,7.406,0c1.087-1.087,1.578-2.534,1.508-3.958
			C295.715,5.48,292.708,4.36,289.653,3.44z M276.912,8.078c-2.045-2.044-5.361-2.046-7.405,0c-2.044,2.044-2.044,5.36,0.001,7.405
			c2.046,2.045,5.359,2.045,7.404,0C278.957,13.437,278.958,10.122,276.912,8.078z M251.914,33.077
			c-2.045-2.046-5.359-2.047-7.405-0.002c-2.046,2.045-2.044,5.361,0.001,7.407c2.045,2.045,5.359,2.044,7.404-0.001
			C253.96,38.435,253.96,35.121,251.914,33.077z M292.428,23.593c-2.043-2.044-5.358-2.044-7.404,0
			c-2.045,2.044-2.043,5.361,0,7.406c2.046,2.044,5.359,2.044,7.404,0C294.473,28.954,294.473,25.637,292.428,23.593z
			 M216.566,99.455c-2.044-2.044-5.359-2.044-7.403,0c-2.047,2.045-2.045,5.361-0.001,7.405c2.045,2.044,5.359,2.044,7.405,0
			C218.611,104.815,218.611,101.499,216.566,99.455z M211.812,119.698c-2.044-2.045-5.359-2.045-7.405,0
			c-2.045,2.044-2.043,5.36,0.001,7.404c2.045,2.045,5.359,2.045,7.403,0C213.857,125.057,213.857,121.743,211.812,119.698z
			 M236.81,94.699c-2.044-2.045-5.36-2.045-7.405,0c-2.045,2.044-2.045,5.361,0,7.406c2.046,2.044,5.361,2.044,7.405,0
			C238.855,100.061,238.855,96.745,236.81,94.699z M241.564,74.456c-2.044-2.043-5.36-2.043-7.405,0.001
			c-2.044,2.046-2.043,5.36,0,7.404c2.046,2.044,5.361,2.046,7.405,0C243.609,79.816,243.609,76.501,241.564,74.456z M267.43,48.592
			c-2.043-2.044-5.359-2.045-7.404,0c-2.044,2.044-2.044,5.361,0,7.404c2.045,2.046,5.359,2.046,7.405,0
			C269.476,53.951,269.476,50.636,267.43,48.592z M236.398,17.559c-2.044-2.044-5.359-2.044-7.405,0
			c-2.044,2.045-2.044,5.361,0,7.406c2.046,2.044,5.361,2.044,7.405,0C238.442,22.918,238.442,19.604,236.398,17.559z
			 M336.299,57.276c2.014,2.013,5.251,2.033,7.302,0.083c-0.921-3.049-2.038-6.05-3.327-8.996c-1.429-0.073-2.882,0.415-3.975,1.508
			C334.255,51.916,334.255,55.231,336.299,57.276z M261.125,0.188c-2.016,0.128-4.025,0.32-6.025,0.599
			C256.999,1.879,259.42,1.679,261.125,0.188z M191.524,50.262c-0.804,1.975-1.508,3.977-2.148,5.999
			c0.313-0.202,0.611-0.432,0.885-0.705C191.695,54.122,192.101,52.068,191.524,50.262z M235.83,5.954
			c1.807,0.577,3.86,0.171,5.294-1.262c0.273-0.273,0.504-0.572,0.704-0.884C239.809,4.45,237.805,5.151,235.83,5.954z
			 M346.268,91.957c0.278-2.001,0.47-4.012,0.601-6.027C345.377,87.635,345.176,90.054,346.268,91.957z M341.088,111.251
			c0.815-2.001,1.528-4.031,2.176-6.078c-0.329,0.205-0.645,0.441-0.931,0.727C340.886,107.35,340.483,109.431,341.088,111.251z
			 M287.672,43.837c-2.044-2.044-5.358-2.046-7.404,0c-2.044,2.044-2.044,5.361,0,7.405c2.046,2.044,5.36,2.043,7.404-0.001
			C289.718,49.195,289.718,45.881,287.672,43.837z M186.355,69.528c-0.279,2.002-0.471,4.013-0.599,6.028
			C187.246,73.852,187.446,71.431,186.355,69.528z M201.051,83.939c-2.045-2.044-5.361-2.045-7.405-0.001
			c-2.045,2.045-2.045,5.361,0.001,7.407c2.045,2.044,5.359,2.044,7.404-0.002C203.095,89.299,203.096,85.983,201.051,83.939z
			 M205.776,63.667c-2.044-2.046-5.358-2.044-7.403,0c-2.045,2.045-2.047,5.36-0.001,7.404c2.046,2.046,5.36,2.045,7.405,0
			C207.822,69.027,207.823,65.713,205.776,63.667z M256.641,12.804c-2.046-2.044-5.36-2.044-7.404,0
			c-2.045,2.045-2.046,5.361,0,7.405c2.044,2.045,5.36,2.044,7.405,0C258.686,18.165,258.686,14.85,256.641,12.804z M210.533,43.425
			c-2.046-2.045-5.361-2.044-7.405,0c-2.046,2.045-2.045,5.358,0.001,7.404c2.044,2.045,5.358,2.045,7.402,0
			C212.576,48.785,212.578,45.469,210.533,43.425z M226.05,58.94c-2.045-2.044-5.361-2.044-7.405,0
			c-2.046,2.044-2.045,5.361,0,7.406c2.045,2.045,5.359,2.045,7.405,0C228.094,64.301,228.094,60.986,226.05,58.94z M323.461,54.626
			c-2.045-2.044-5.36-2.044-7.405,0s-2.045,5.36,0.001,7.406c2.044,2.044,5.359,2.044,7.404,0
			C325.505,59.986,325.505,56.67,323.461,54.626z M312.672,18.838c-2.045-2.044-5.36-2.044-7.406,0
			c-2.044,2.045-2.044,5.361,0,7.405c2.046,2.044,5.361,2.044,7.406,0C314.716,24.198,314.716,20.883,312.672,18.838z
			 M283.358,141.248c-2.044-2.045-5.361-2.045-7.405,0c-2.045,2.044-2.045,5.361,0,7.405c2.045,2.044,5.361,2.045,7.406,0
			C285.404,146.609,285.402,143.293,283.358,141.248z M338.977,70.142c-2.045-2.044-5.359-2.044-7.404,0
			c-2.045,2.045-2.046,5.36,0,7.405c2.045,2.044,5.36,2.044,7.405,0C341.023,75.502,341.023,72.187,338.977,70.142z M313.978,95.141
			c-2.046-2.046-5.36-2.046-7.404,0c-2.045,2.044-2.046,5.359,0,7.404c2.044,2.045,5.361,2.045,7.405,0.001
			C316.023,100.5,316.023,97.185,313.978,95.141z M318.705,74.87c-2.044-2.046-5.358-2.046-7.404,0
			c-2.044,2.044-2.045,5.358-0.001,7.404c2.045,2.044,5.361,2.044,7.405,0C320.751,80.228,320.75,76.915,318.705,74.87z
			 M267.843,125.732c-2.046-2.045-5.36-2.045-7.405,0c-2.045,2.044-2.045,5.36,0,7.406c2.045,2.044,5.361,2.044,7.405,0
			C269.888,131.094,269.888,127.777,267.843,125.732z M263.114,146.003c-2.044-2.045-5.358-2.045-7.402,0
			c-2.047,2.045-2.047,5.36-0.002,7.405c2.046,2.044,5.36,2.045,7.407,0C265.161,151.364,265.161,148.049,263.114,146.003z
			 M329.495,110.656c-2.045-2.045-5.358-2.045-7.404,0c-2.046,2.045-2.046,5.361-0.001,7.405c2.044,2.044,5.36,2.044,7.405,0
			C331.541,116.017,331.539,112.701,329.495,110.656z M334.221,90.385c-2.044-2.044-5.358-2.045-7.404,0
			c-2.044,2.044-2.045,5.36,0,7.405c2.046,2.044,5.362,2.044,7.407,0C336.268,95.747,336.267,92.43,334.221,90.385z
			 M291.471,156.765c-0.287,0.287-0.522,0.602-0.729,0.931c2.047-0.648,4.079-1.361,6.078-2.177
			C294.999,154.915,292.918,155.316,291.471,156.765z M271.497,161.299c2.016-0.129,4.027-0.321,6.03-0.6
			C275.624,159.607,273.201,159.808,271.497,161.299z M303.63,136.522c-2.045-2.045-5.359-2.044-7.404,0
			c-2.045,2.044-2.045,5.359,0,7.404c2.045,2.044,5.359,2.045,7.404,0.001C305.675,141.883,305.675,138.566,303.63,136.522z
			 M288.113,121.004c-2.044-2.044-5.36-2.043-7.405,0.001c-2.044,2.045-2.044,5.36,0,7.404c2.047,2.045,5.361,2.047,7.405,0.001
			C290.158,126.366,290.159,123.051,288.113,121.004z M242.844,150.73c-2.044-2.045-5.358-2.044-7.404,0.001
			c-1.093,1.092-1.582,2.545-1.508,3.974c2.945,1.289,5.947,2.408,8.996,3.328C244.879,155.982,244.857,152.743,242.844,150.73z
			 M282.946,64.107c-2.044-2.045-5.361-2.046-7.405,0c-2.045,2.044-2.045,5.361,0,7.405c2.045,2.045,5.361,2.046,7.406,0
			C284.993,69.468,284.99,66.153,282.946,64.107z M227.328,135.214c-2.045-2.044-5.36-2.044-7.405,0
			c-2.046,2.044-2.044,5.36,0,7.405c2.046,2.044,5.361,2.047,7.405,0.001C229.374,140.575,229.373,137.259,227.328,135.214z
			 M252.326,110.217c-2.045-2.047-5.361-2.047-7.405-0.002c-2.046,2.045-2.046,5.361,0.001,7.407
			c2.045,2.045,5.361,2.045,7.405,0.001C254.372,115.578,254.372,112.262,252.326,110.217z M232.084,114.971
			c-2.046-2.045-5.361-2.045-7.405-0.001c-2.047,2.046-2.045,5.361,0,7.405c2.044,2.045,5.36,2.047,7.405,0.001
			C234.128,120.332,234.128,117.017,232.084,114.971z M257.082,89.973c-2.046-2.045-5.362-2.045-7.407-0.001
			c-2.044,2.045-2.043,5.36,0.003,7.405c2.044,2.046,5.359,2.046,7.405,0.001C259.127,95.334,259.127,92.018,257.082,89.973z
			 M307.945,39.109c-2.046-2.045-5.361-2.045-7.406-0.001c-2.045,2.045-2.043,5.361,0.001,7.405c2.044,2.046,5.36,2.047,7.405,0.002
			C309.99,44.471,309.99,41.155,307.945,39.109z M298.463,79.625c-2.046-2.045-5.359-2.046-7.404-0.001
			c-2.045,2.045-2.045,5.36,0,7.405c2.045,2.044,5.358,2.044,7.404-0.001C300.509,84.984,300.508,81.669,298.463,79.625z
			 M272.598,105.489c-2.044-2.044-5.36-2.044-7.405,0c-2.044,2.045-2.044,5.361,0,7.405c2.045,2.044,5.36,2.044,7.405,0
			C274.643,110.85,274.643,107.533,272.598,105.489z M247.6,130.488c-2.045-2.044-5.36-2.044-7.404,0
			c-2.046,2.044-2.046,5.36,0,7.405c2.044,2.044,5.359,2.044,7.404-0.001C249.644,135.848,249.644,132.532,247.6,130.488z
			 M328.188,34.355c-2.045-2.047-5.359-2.047-7.405-0.002c-2.045,2.046-2.045,5.361,0.001,7.407
			c2.045,2.045,5.361,2.045,7.406,0.001C330.233,39.715,330.233,36.4,328.188,34.355z M303.19,59.353
			c-2.047-2.046-5.361-2.046-7.405-0.001c-2.045,2.044-2.046,5.361,0,7.405c2.044,2.046,5.36,2.046,7.405,0.001
			C305.235,64.713,305.234,61.399,303.19,59.353z"/>
		
			<rect x="181.653" y="75.883" transform="matrix(0.7071 0.7071 -0.7071 0.7071 135.0939 -164.6611)" style="fill:#1E252B;" width="169.317" height="9.721"/>
	</g>
	<polygon style="fill:#004D7A;" points="269.897,159.853 187.203,77.159 16.605,280.053 67.002,330.449 	"/>
	
		<rect x="8.602" y="302.343" transform="matrix(0.7071 0.7071 -0.7071 0.7071 230.9918 66.8624)" style="fill:#1E252B;" width="52.367" height="19.846"/>
	
		<rect x="6.756" y="315.146" transform="matrix(0.7071 0.7071 -0.7071 0.7071 238.0402 83.8693)" style="fill:#7D868C;" width="22.055" height="28.244"/>
	<path style="fill:#1E252B;" d="M147.462,224.049c-6.753,6.752-17.702,6.752-24.455-0.001c-6.753-6.753-6.753-17.701,0-24.455
		l31.52-31.518c6.753-6.754,17.702-6.754,24.454-0.001c6.754,6.754,6.755,17.703,0,24.456L147.462,224.049z"/>
	<path style="fill:#7D868C;" d="M174.905,188.454c4.503-4.503,4.503-11.803,0-16.306c-4.501-4.501-11.8-4.501-16.304,0.002
		c-4.502,4.5-4.502,11.8,0,16.302C163.104,192.955,170.403,192.955,174.905,188.454z"/>
	
		<rect x="159.356" y="115.683" transform="matrix(0.7071 0.7071 -0.7071 0.7071 153.5572 -120.0869)" style="fill:#00BCB4;" width="124.761" height="19.269"/>
	
		<rect x="31.735" y="262.083" transform="matrix(0.7071 0.7071 -0.7071 0.7071 213.2879 24.1168)" style="fill:#00BCB4;" width="91.595" height="14.876"/>
</g>
</svg>