<?xml version="1.0" encoding="iso-8859-1"?>
<!-- Uploaded to: SVG Repo, www.svgrepo.com, Generator: SVG Repo Mixer Tools -->
<svg version="1.1" id="Layer_1" xmlns="http://www.w3.org/2000/svg" xmlns:xlink="http://www.w3.org/1999/xlink" 
	 viewBox="0 0 512 512" xml:space="preserve">
<rect x="239.65" y="180.036" style="fill:#D6B56D;" width="32.697" height="116.512"/>
<polygon style="opacity:0.1;enable-background:new    ;" points="239.651,234.156 256,225.561 272.349,234.156 272.349,180.04 
	239.651,180.04 "/>
<polygon style="fill:#FFD782;" points="256,0 294.133,77.266 379.401,89.656 317.701,149.799 332.266,234.723 256,194.627 
	179.734,234.723 194.299,149.799 132.599,89.656 217.867,77.266 "/>
<g>
	<path style="fill:#D6B56D;" d="M286.676,114.623h-61.351c-4.536,0-8.214-3.678-8.214-8.214c0-4.536,3.678-8.214,8.214-8.214h61.351
		c4.536,0,8.214,3.678,8.214,8.214C294.89,110.945,291.212,114.623,286.676,114.623z"/>
	<path style="fill:#D6B56D;" d="M286.676,143.663h-61.351c-4.536,0-8.214-3.678-8.214-8.214s3.678-8.214,8.214-8.214h61.351
		c4.536,0,8.214,3.678,8.214,8.214S291.212,143.663,286.676,143.663z"/>
	<path style="fill:#D6B56D;" d="M286.676,172.705h-61.351c-4.536,0-8.214-3.678-8.214-8.214s3.678-8.214,8.214-8.214h61.351
		c4.536,0,8.214,3.678,8.214,8.214S291.212,172.705,286.676,172.705z"/>
</g>
<path style="fill:#FFD782;" d="M264.026,266.537h-16.051c-34.552,0-62.562,28.01-62.562,62.562l0,0v33.596h141.175V329.1l0,0
	C326.587,294.547,298.578,266.537,264.026,266.537z"/>
<path style="opacity:0.1;enable-background:new    ;" d="M218.27,329.1c0-31.701,23.583-57.877,54.159-61.984
	c-2.75-0.369-5.552-0.577-8.403-0.577h-16.051c-34.552,0-62.563,28.01-62.563,62.562l0,0v33.596h32.857V329.1L218.27,329.1z"/>
<rect x="143.499" y="329.099" style="fill:#464754;" width="225.007" height="158.296"/>
<rect x="175.721" y="362.69" style="fill:#FFD782;" width="160.552" height="66.499"/>
<rect x="143.499" y="329.099" style="opacity:0.1;enable-background:new    ;" width="32.857" height="158.296"/>
<path style="fill:#363640;" d="M371.346,462.79H140.654c-27.178,0-49.21,22.032-49.21,49.21l0,0h329.113l0,0
	C420.557,484.822,398.524,462.79,371.346,462.79z"/>
<path style="opacity:0.1;enable-background:new    ;" d="M173.512,462.789h-32.857c-27.178,0-49.211,22.033-49.211,49.211l0,0H124.3
	l0,0C124.3,484.822,146.333,462.789,173.512,462.789z"/>
</svg>