<?xml version="1.0" encoding="iso-8859-1"?>
<!-- Uploaded to: SVG Repo, www.svgrepo.com, Generator: SVG Repo Mixer Tools -->
<svg height="800px" width="800px" version="1.1" id="Layer_1" xmlns="http://www.w3.org/2000/svg" xmlns:xlink="http://www.w3.org/1999/xlink" 
	 viewBox="0 0 512 512" xml:space="preserve">
<polygon style="fill:#F2C364;" points="266.616,286.581 266.616,512 189.193,512 174.008,362.375 "/>
<g>
	<polygon style="fill:#FFCD69;" points="121.356,228.042 148.969,512 200.392,512 187.664,375.513 196.784,282.121 	"/>
	<polygon style="fill:#FFCD69;" points="256,286.581 256,512 322.807,512 337.99,362.375 	"/>
</g>
<polygon style="fill:#F2C364;" points="390.643,228.042 363.03,512 311.607,512 324.334,375.513 315.216,282.121 "/>
<path style="fill:#FFE669;" d="M390.642,228.042c9.847-9.599,4.413-26.323-9.195-28.3l-67.768-9.847
	c-5.404-0.786-10.075-4.18-12.493-9.076l-30.308-61.41c-6.087-12.331-23.671-12.331-29.757,0l-30.307,61.409
	c-2.416,4.896-7.089,8.292-12.493,9.076l-67.768,9.847c-13.609,1.978-19.043,18.702-9.195,28.3l49.038,47.8
	c3.91,3.811,5.695,9.304,4.772,14.686l-11.577,67.495c-2.325,13.555,11.902,23.89,24.074,17.491l60.614-31.867
	c4.834-2.542,10.608-2.542,15.442,0l60.614,31.867c12.172,6.4,26.399-3.937,24.074-17.491l-11.577-67.495
	c-0.924-5.383,0.861-10.874,4.772-14.686L390.642,228.042z"/>
<g>
	<path style="fill:#F2CC7B;" d="M125.962,161.531c-1.897,0-3.801-0.674-5.322-2.042l-56.02-50.38
		c-3.27-2.941-3.536-7.975-0.597-11.245c2.94-3.271,7.974-3.536,11.245-0.597l56.02,50.38c3.27,2.941,3.536,7.975,0.597,11.245
		C130.312,160.642,128.141,161.531,125.962,161.531z"/>
	<path style="fill:#F2CC7B;" d="M179.208,84.324c-2.695,0-5.323-1.367-6.82-3.841l-25.842-42.708
		c-2.277-3.763-1.072-8.658,2.69-10.934c3.762-2.278,8.658-1.072,10.934,2.69l25.842,42.708c2.277,3.763,1.072,8.658-2.69,10.934
		C182.035,83.954,180.613,84.324,179.208,84.324z"/>
	<path style="fill:#F2CC7B;" d="M386.038,161.531c-2.18,0-4.351-0.89-5.923-2.638c-2.941-3.27-2.674-8.305,0.597-11.245l56.02-50.38
		c3.27-2.941,8.303-2.674,11.245,0.597c2.941,3.27,2.674,8.305-0.597,11.245l-56.02,50.38
		C389.837,160.857,387.935,161.531,386.038,161.531z"/>
	<path style="fill:#F2CC7B;" d="M332.79,84.324c-1.404,0-2.825-0.372-4.114-1.151c-3.763-2.276-4.967-7.172-2.69-10.934
		l25.842-42.708c2.276-3.762,7.17-4.968,10.934-2.69c3.763,2.276,4.967,7.172,2.69,10.934L339.61,80.483
		C338.113,82.957,335.484,84.324,332.79,84.324z"/>
	<path style="fill:#F2CC7B;" d="M255.999,58.172c-4.398,0-7.963-3.565-7.963-7.963V7.963c0-4.398,3.565-7.963,7.963-7.963
		c4.397,0,7.963,3.565,7.963,7.963v42.247C263.962,54.607,260.398,58.172,255.999,58.172z"/>
</g>
</svg>